<mxfile host="app.diagrams.net" modified="2023-05-19T08:58:00.192Z" agent="Mozilla/5.0 (Windows NT 10.0; Win64; x64) AppleWebKit/537.36 (KHTML, like Gecko) Chrome/113.0.0.0 Safari/537.36" etag="KpQgb6jC0TVkWx28Syb1" version="21.1.4" type="device">
  <diagram name="Page-1" id="e7e014a7-5840-1c2e-5031-d8a46d1fe8dd">
    <mxGraphModel dx="4356" dy="1751" grid="1" gridSize="10" guides="1" tooltips="1" connect="1" arrows="1" fold="1" page="1" pageScale="1" pageWidth="1169" pageHeight="826" background="none" math="0" shadow="0">
      <root>
        <mxCell id="0" />
        <mxCell id="1" parent="0" />
        <mxCell id="yYrWs5ZPauLih-OJuVwP-48" value="" style="shape=table;startSize=0;container=1;collapsible=0;childLayout=tableLayout;fontSize=16;strokeColor=#000000;" vertex="1" parent="1">
          <mxGeometry x="-50" y="70" width="1352" height="1738" as="geometry" />
        </mxCell>
        <mxCell id="yYrWs5ZPauLih-OJuVwP-49" value="" style="shape=tableRow;horizontal=0;startSize=0;swimlaneHead=0;swimlaneBody=0;strokeColor=inherit;top=0;left=0;bottom=0;right=0;collapsible=0;dropTarget=0;fillColor=none;points=[[0,0.5],[1,0.5]];portConstraint=eastwest;fontSize=16;" vertex="1" parent="yYrWs5ZPauLih-OJuVwP-48">
          <mxGeometry width="1352" height="93" as="geometry" />
        </mxCell>
        <mxCell id="yYrWs5ZPauLih-OJuVwP-50" value="Tourist" style="shape=partialRectangle;html=1;whiteSpace=wrap;connectable=0;strokeColor=inherit;overflow=hidden;fillColor=none;top=0;left=0;bottom=0;right=0;pointerEvents=1;fontSize=16;" vertex="1" parent="yYrWs5ZPauLih-OJuVwP-49">
          <mxGeometry width="610" height="93" as="geometry">
            <mxRectangle width="610" height="93" as="alternateBounds" />
          </mxGeometry>
        </mxCell>
        <mxCell id="yYrWs5ZPauLih-OJuVwP-51" value="System" style="shape=partialRectangle;html=1;whiteSpace=wrap;connectable=0;strokeColor=inherit;overflow=hidden;fillColor=none;top=0;left=0;bottom=0;right=0;pointerEvents=1;fontSize=16;" vertex="1" parent="yYrWs5ZPauLih-OJuVwP-49">
          <mxGeometry x="610" width="323" height="93" as="geometry">
            <mxRectangle width="323" height="93" as="alternateBounds" />
          </mxGeometry>
        </mxCell>
        <mxCell id="yYrWs5ZPauLih-OJuVwP-52" value="Tour Manager" style="shape=partialRectangle;html=1;whiteSpace=wrap;connectable=0;strokeColor=inherit;overflow=hidden;fillColor=none;top=0;left=0;bottom=0;right=0;pointerEvents=1;fontSize=16;" vertex="1" parent="yYrWs5ZPauLih-OJuVwP-49">
          <mxGeometry x="933" width="419" height="93" as="geometry">
            <mxRectangle width="419" height="93" as="alternateBounds" />
          </mxGeometry>
        </mxCell>
        <mxCell id="yYrWs5ZPauLih-OJuVwP-53" value="" style="shape=tableRow;horizontal=0;startSize=0;swimlaneHead=0;swimlaneBody=0;strokeColor=inherit;top=0;left=0;bottom=0;right=0;collapsible=0;dropTarget=0;fillColor=none;points=[[0,0.5],[1,0.5]];portConstraint=eastwest;fontSize=16;" vertex="1" parent="yYrWs5ZPauLih-OJuVwP-48">
          <mxGeometry y="93" width="1352" height="1645" as="geometry" />
        </mxCell>
        <mxCell id="yYrWs5ZPauLih-OJuVwP-54" value="" style="shape=partialRectangle;html=1;whiteSpace=wrap;connectable=0;strokeColor=inherit;overflow=hidden;fillColor=none;top=0;left=0;bottom=0;right=0;pointerEvents=1;fontSize=16;" vertex="1" parent="yYrWs5ZPauLih-OJuVwP-53">
          <mxGeometry width="610" height="1645" as="geometry">
            <mxRectangle width="610" height="1645" as="alternateBounds" />
          </mxGeometry>
        </mxCell>
        <mxCell id="yYrWs5ZPauLih-OJuVwP-55" value="" style="shape=partialRectangle;html=1;whiteSpace=wrap;connectable=0;strokeColor=inherit;overflow=hidden;fillColor=none;top=0;left=0;bottom=0;right=0;pointerEvents=1;fontSize=16;" vertex="1" parent="yYrWs5ZPauLih-OJuVwP-53">
          <mxGeometry x="610" width="323" height="1645" as="geometry">
            <mxRectangle width="323" height="1645" as="alternateBounds" />
          </mxGeometry>
        </mxCell>
        <mxCell id="yYrWs5ZPauLih-OJuVwP-56" value="" style="shape=partialRectangle;html=1;whiteSpace=wrap;connectable=0;strokeColor=inherit;overflow=hidden;fillColor=none;top=0;left=0;bottom=0;right=0;pointerEvents=1;fontSize=16;" vertex="1" parent="yYrWs5ZPauLih-OJuVwP-53">
          <mxGeometry x="933" width="419" height="1645" as="geometry">
            <mxRectangle width="419" height="1645" as="alternateBounds" />
          </mxGeometry>
        </mxCell>
        <mxCell id="yYrWs5ZPauLih-OJuVwP-64" value="" style="ellipse;shape=startState;fillColor=#000000;strokeColor=#ff0000;" vertex="1" parent="1">
          <mxGeometry x="270" y="210" width="30" height="30" as="geometry" />
        </mxCell>
        <mxCell id="yYrWs5ZPauLih-OJuVwP-65" value="" style="endArrow=classic;html=1;rounded=0;strokeColor=#ff0000;exitX=0.533;exitY=0.911;exitDx=0;exitDy=0;exitPerimeter=0;entryX=0.5;entryY=0;entryDx=0;entryDy=0;" edge="1" parent="1" source="yYrWs5ZPauLih-OJuVwP-64" target="yYrWs5ZPauLih-OJuVwP-116">
          <mxGeometry width="50" height="50" relative="1" as="geometry">
            <mxPoint x="510" y="370" as="sourcePoint" />
            <mxPoint x="285.3759255743307" y="270" as="targetPoint" />
          </mxGeometry>
        </mxCell>
        <mxCell id="yYrWs5ZPauLih-OJuVwP-117" value="" style="edgeStyle=orthogonalEdgeStyle;html=1;verticalAlign=bottom;endArrow=open;endSize=8;strokeColor=#ff0000;rounded=0;entryX=0;entryY=0.5;entryDx=0;entryDy=0;" edge="1" source="yYrWs5ZPauLih-OJuVwP-116" parent="1" target="yYrWs5ZPauLih-OJuVwP-134">
          <mxGeometry relative="1" as="geometry">
            <mxPoint x="315" y="450" as="targetPoint" />
            <Array as="points">
              <mxPoint x="285" y="330" />
            </Array>
          </mxGeometry>
        </mxCell>
        <mxCell id="yYrWs5ZPauLih-OJuVwP-133" value="" style="group" vertex="1" connectable="0" parent="1">
          <mxGeometry x="225" y="270" width="120" height="40" as="geometry" />
        </mxCell>
        <mxCell id="yYrWs5ZPauLih-OJuVwP-116" value="Login" style="rounded=1;whiteSpace=wrap;html=1;arcSize=40;fontColor=#000000;fillColor=#ffffc0;strokeColor=#ff0000;" vertex="1" parent="yYrWs5ZPauLih-OJuVwP-133">
          <mxGeometry width="120" height="40" as="geometry" />
        </mxCell>
        <mxCell id="yYrWs5ZPauLih-OJuVwP-125" value="" style="group" vertex="1" connectable="0" parent="yYrWs5ZPauLih-OJuVwP-133">
          <mxGeometry x="75" width="40" height="20" as="geometry" />
        </mxCell>
        <mxCell id="yYrWs5ZPauLih-OJuVwP-126" value="" style="line;strokeWidth=1;direction=south;html=1;perimeter=backbonePerimeter;points=[];outlineConnect=0;fontSize=5;fontColor=default;labelBackgroundColor=default;labelBorderColor=none;" vertex="1" parent="yYrWs5ZPauLih-OJuVwP-125">
          <mxGeometry x="20" y="5" width="20" height="15" as="geometry" />
        </mxCell>
        <mxCell id="yYrWs5ZPauLih-OJuVwP-127" value="" style="group" vertex="1" connectable="0" parent="yYrWs5ZPauLih-OJuVwP-125">
          <mxGeometry width="30" height="20" as="geometry" />
        </mxCell>
        <mxCell id="yYrWs5ZPauLih-OJuVwP-128" value="" style="line;strokeWidth=1;direction=south;html=1;perimeter=backbonePerimeter;points=[];outlineConnect=0;fontSize=5;fontColor=default;labelBackgroundColor=default;labelBorderColor=none;" vertex="1" parent="yYrWs5ZPauLih-OJuVwP-127">
          <mxGeometry x="10" width="20" height="15" as="geometry" />
        </mxCell>
        <mxCell id="yYrWs5ZPauLih-OJuVwP-129" value="" style="line;strokeWidth=1;direction=south;html=1;perimeter=backbonePerimeter;points=[];outlineConnect=0;fontSize=5;fontColor=default;labelBackgroundColor=default;labelBorderColor=none;" vertex="1" parent="yYrWs5ZPauLih-OJuVwP-127">
          <mxGeometry y="5" width="20" height="15" as="geometry" />
        </mxCell>
        <mxCell id="yYrWs5ZPauLih-OJuVwP-130" value="" style="line;strokeWidth=1;direction=south;html=1;perimeter=backbonePerimeter;points=[];outlineConnect=0;fontSize=5;fontColor=default;labelBackgroundColor=default;labelBorderColor=none;" vertex="1" parent="yYrWs5ZPauLih-OJuVwP-127">
          <mxGeometry x="10" y="5" width="20" height="15" as="geometry" />
        </mxCell>
        <mxCell id="yYrWs5ZPauLih-OJuVwP-131" value="" style="line;strokeWidth=1;html=1;" vertex="1" parent="yYrWs5ZPauLih-OJuVwP-127">
          <mxGeometry x="10" width="20" height="10" as="geometry" />
        </mxCell>
        <mxCell id="yYrWs5ZPauLih-OJuVwP-134" value="Direct to Website Home Page" style="rounded=1;whiteSpace=wrap;html=1;arcSize=40;fontColor=#000000;fillColor=#ffffc0;strokeColor=#ff0000;" vertex="1" parent="1">
          <mxGeometry x="585" y="310" width="120" height="40" as="geometry" />
        </mxCell>
        <mxCell id="yYrWs5ZPauLih-OJuVwP-135" value="" style="edgeStyle=orthogonalEdgeStyle;html=1;verticalAlign=bottom;endArrow=open;endSize=8;strokeColor=#ff0000;rounded=0;" edge="1" source="yYrWs5ZPauLih-OJuVwP-134" parent="1" target="yYrWs5ZPauLih-OJuVwP-136">
          <mxGeometry relative="1" as="geometry">
            <mxPoint x="645" y="410" as="targetPoint" />
            <Array as="points">
              <mxPoint x="645" y="380" />
            </Array>
          </mxGeometry>
        </mxCell>
        <mxCell id="yYrWs5ZPauLih-OJuVwP-138" style="edgeStyle=orthogonalEdgeStyle;rounded=0;orthogonalLoop=1;jettySize=auto;html=1;strokeColor=#ff0000;entryX=0;entryY=0.5;entryDx=0;entryDy=0;" edge="1" parent="1" source="yYrWs5ZPauLih-OJuVwP-136">
          <mxGeometry relative="1" as="geometry">
            <mxPoint x="585" y="430" as="targetPoint" />
            <Array as="points">
              <mxPoint x="285" y="430" />
            </Array>
          </mxGeometry>
        </mxCell>
        <mxCell id="yYrWs5ZPauLih-OJuVwP-136" value="Click on Tour Packages on navbar menu" style="rounded=1;whiteSpace=wrap;html=1;arcSize=40;fontColor=#000000;fillColor=#ffffc0;strokeColor=#ff0000;" vertex="1" parent="1">
          <mxGeometry x="225" y="360" width="120" height="40" as="geometry" />
        </mxCell>
        <mxCell id="yYrWs5ZPauLih-OJuVwP-146" style="edgeStyle=orthogonalEdgeStyle;rounded=0;orthogonalLoop=1;jettySize=auto;html=1;strokeColor=#ff0000;" edge="1" parent="1" source="yYrWs5ZPauLih-OJuVwP-139" target="yYrWs5ZPauLih-OJuVwP-143">
          <mxGeometry relative="1" as="geometry" />
        </mxCell>
        <mxCell id="yYrWs5ZPauLih-OJuVwP-139" value="Explore given packages" style="rounded=1;whiteSpace=wrap;html=1;arcSize=40;fontColor=#000000;fillColor=#ffffc0;strokeColor=#ff0000;" vertex="1" parent="1">
          <mxGeometry x="220" y="450" width="120" height="40" as="geometry" />
        </mxCell>
        <mxCell id="yYrWs5ZPauLih-OJuVwP-141" value="Direct to tour package home" style="rounded=1;whiteSpace=wrap;html=1;arcSize=40;fontColor=#000000;fillColor=#ffffc0;strokeColor=#ff0000;" vertex="1" parent="1">
          <mxGeometry x="585" y="410" width="120" height="40" as="geometry" />
        </mxCell>
        <mxCell id="yYrWs5ZPauLih-OJuVwP-142" value="" style="edgeStyle=orthogonalEdgeStyle;html=1;verticalAlign=bottom;endArrow=open;endSize=8;strokeColor=#ff0000;rounded=0;entryX=1;entryY=0.5;entryDx=0;entryDy=0;" edge="1" source="yYrWs5ZPauLih-OJuVwP-141" parent="1" target="yYrWs5ZPauLih-OJuVwP-139">
          <mxGeometry relative="1" as="geometry">
            <mxPoint x="700" y="600" as="targetPoint" />
            <Array as="points">
              <mxPoint x="645" y="470" />
            </Array>
          </mxGeometry>
        </mxCell>
        <mxCell id="yYrWs5ZPauLih-OJuVwP-143" value="Found a Matching Package" style="rhombus;whiteSpace=wrap;html=1;fontColor=#000000;fillColor=#ffffc0;strokeColor=#FF0000;" vertex="1" parent="1">
          <mxGeometry x="210" y="530" width="140" height="90" as="geometry" />
        </mxCell>
        <mxCell id="yYrWs5ZPauLih-OJuVwP-144" value="&lt;font style=&quot;font-size: 14px;&quot;&gt;No&lt;br&gt;&lt;/font&gt;" style="edgeStyle=orthogonalEdgeStyle;html=1;align=left;verticalAlign=bottom;endArrow=open;endSize=8;strokeColor=#ff0000;rounded=0;" edge="1" source="yYrWs5ZPauLih-OJuVwP-143" parent="1" target="yYrWs5ZPauLih-OJuVwP-150">
          <mxGeometry x="-0.04" y="5" relative="1" as="geometry">
            <mxPoint x="420" y="570" as="targetPoint" />
            <Array as="points">
              <mxPoint x="450" y="575" />
            </Array>
            <mxPoint as="offset" />
          </mxGeometry>
        </mxCell>
        <mxCell id="yYrWs5ZPauLih-OJuVwP-145" value="&lt;font style=&quot;font-size: 14px;&quot;&gt;yes&lt;/font&gt;" style="edgeStyle=orthogonalEdgeStyle;html=1;align=left;verticalAlign=top;endArrow=open;endSize=8;strokeColor=#ff0000;rounded=0;entryX=0.5;entryY=0;entryDx=0;entryDy=0;" edge="1" source="yYrWs5ZPauLih-OJuVwP-143" parent="1" target="yYrWs5ZPauLih-OJuVwP-148">
          <mxGeometry x="-0.1111" y="-35" relative="1" as="geometry">
            <mxPoint x="290" y="650" as="targetPoint" />
            <Array as="points">
              <mxPoint x="100" y="575" />
            </Array>
            <mxPoint as="offset" />
          </mxGeometry>
        </mxCell>
        <mxCell id="yYrWs5ZPauLih-OJuVwP-195" style="edgeStyle=orthogonalEdgeStyle;rounded=0;orthogonalLoop=1;jettySize=auto;html=1;entryX=0.5;entryY=0;entryDx=0;entryDy=0;strokeColor=#ff0000;" edge="1" parent="1" source="yYrWs5ZPauLih-OJuVwP-148" target="yYrWs5ZPauLih-OJuVwP-192">
          <mxGeometry relative="1" as="geometry" />
        </mxCell>
        <mxCell id="yYrWs5ZPauLih-OJuVwP-148" value="Click on package Card" style="rounded=1;whiteSpace=wrap;html=1;arcSize=40;fontColor=#000000;fillColor=#ffffc0;strokeColor=#ff0000;" vertex="1" parent="1">
          <mxGeometry x="40" y="600" width="120" height="40" as="geometry" />
        </mxCell>
        <mxCell id="yYrWs5ZPauLih-OJuVwP-152" style="edgeStyle=orthogonalEdgeStyle;rounded=0;orthogonalLoop=1;jettySize=auto;html=1;strokeColor=#ff0000;" edge="1" parent="1" source="yYrWs5ZPauLih-OJuVwP-150" target="yYrWs5ZPauLih-OJuVwP-151">
          <mxGeometry relative="1" as="geometry" />
        </mxCell>
        <mxCell id="yYrWs5ZPauLih-OJuVwP-150" value="Use Search&amp;nbsp;" style="rounded=1;whiteSpace=wrap;html=1;arcSize=40;fontColor=#000000;fillColor=#ffffc0;strokeColor=#ff0000;" vertex="1" parent="1">
          <mxGeometry x="390" y="600" width="120" height="40" as="geometry" />
        </mxCell>
        <mxCell id="yYrWs5ZPauLih-OJuVwP-154" style="edgeStyle=orthogonalEdgeStyle;rounded=0;orthogonalLoop=1;jettySize=auto;html=1;entryX=0;entryY=0.5;entryDx=0;entryDy=0;strokeColor=#ff0000;" edge="1" parent="1" source="yYrWs5ZPauLih-OJuVwP-151" target="yYrWs5ZPauLih-OJuVwP-153">
          <mxGeometry relative="1" as="geometry" />
        </mxCell>
        <mxCell id="yYrWs5ZPauLih-OJuVwP-151" value="fill require fields and hit enter" style="rounded=1;whiteSpace=wrap;html=1;arcSize=40;fontColor=#000000;fillColor=#ffffc0;strokeColor=#ff0000;" vertex="1" parent="1">
          <mxGeometry x="390" y="680" width="120" height="40" as="geometry" />
        </mxCell>
        <mxCell id="yYrWs5ZPauLih-OJuVwP-157" style="edgeStyle=orthogonalEdgeStyle;rounded=0;orthogonalLoop=1;jettySize=auto;html=1;entryX=1;entryY=0.5;entryDx=0;entryDy=0;strokeColor=#FF0000;" edge="1" parent="1" source="yYrWs5ZPauLih-OJuVwP-153" target="yYrWs5ZPauLih-OJuVwP-155">
          <mxGeometry relative="1" as="geometry">
            <Array as="points">
              <mxPoint x="700" y="790" />
            </Array>
          </mxGeometry>
        </mxCell>
        <mxCell id="yYrWs5ZPauLih-OJuVwP-153" value="search in database and get the relevent packages and display them to user" style="rounded=1;whiteSpace=wrap;html=1;arcSize=40;fontColor=#000000;fillColor=#ffffc0;strokeColor=#ff0000;" vertex="1" parent="1">
          <mxGeometry x="630" y="620" width="160" height="70" as="geometry" />
        </mxCell>
        <mxCell id="yYrWs5ZPauLih-OJuVwP-164" style="edgeStyle=orthogonalEdgeStyle;rounded=0;orthogonalLoop=1;jettySize=auto;html=1;strokeColor=#ff0000;" edge="1" parent="1" source="yYrWs5ZPauLih-OJuVwP-155" target="yYrWs5ZPauLih-OJuVwP-160">
          <mxGeometry relative="1" as="geometry" />
        </mxCell>
        <mxCell id="yYrWs5ZPauLih-OJuVwP-155" value="View Results" style="rounded=1;whiteSpace=wrap;html=1;arcSize=40;fontColor=#000000;fillColor=#ffffc0;strokeColor=#ff0000;" vertex="1" parent="1">
          <mxGeometry x="390" y="770" width="120" height="40" as="geometry" />
        </mxCell>
        <mxCell id="yYrWs5ZPauLih-OJuVwP-165" style="edgeStyle=orthogonalEdgeStyle;rounded=0;orthogonalLoop=1;jettySize=auto;html=1;entryX=1;entryY=0.5;entryDx=0;entryDy=0;strokeColor=#ff0000;" edge="1" parent="1" source="yYrWs5ZPauLih-OJuVwP-160" target="yYrWs5ZPauLih-OJuVwP-148">
          <mxGeometry relative="1" as="geometry" />
        </mxCell>
        <mxCell id="yYrWs5ZPauLih-OJuVwP-167" value="&lt;font style=&quot;font-size: 14px;&quot;&gt;Yes&lt;/font&gt;" style="edgeLabel;html=1;align=center;verticalAlign=middle;resizable=0;points=[];" vertex="1" connectable="0" parent="yYrWs5ZPauLih-OJuVwP-165">
          <mxGeometry x="0.05" y="-2" relative="1" as="geometry">
            <mxPoint x="18" y="12" as="offset" />
          </mxGeometry>
        </mxCell>
        <mxCell id="yYrWs5ZPauLih-OJuVwP-170" style="edgeStyle=orthogonalEdgeStyle;rounded=0;orthogonalLoop=1;jettySize=auto;html=1;strokeColor=#ff0000;" edge="1" parent="1" source="yYrWs5ZPauLih-OJuVwP-160" target="yYrWs5ZPauLih-OJuVwP-169">
          <mxGeometry relative="1" as="geometry" />
        </mxCell>
        <mxCell id="yYrWs5ZPauLih-OJuVwP-160" value="Found a Matching Package" style="rhombus;whiteSpace=wrap;html=1;fontColor=#000000;fillColor=#ffffc0;strokeColor=#ff0000;" vertex="1" parent="1">
          <mxGeometry x="340" y="860" width="140" height="120" as="geometry" />
        </mxCell>
        <mxCell id="yYrWs5ZPauLih-OJuVwP-172" style="edgeStyle=orthogonalEdgeStyle;rounded=0;orthogonalLoop=1;jettySize=auto;html=1;strokeColor=#ff0000;" edge="1" parent="1" source="yYrWs5ZPauLih-OJuVwP-169" target="yYrWs5ZPauLih-OJuVwP-171">
          <mxGeometry relative="1" as="geometry" />
        </mxCell>
        <mxCell id="yYrWs5ZPauLih-OJuVwP-169" value="Apply for customize Packages" style="rounded=1;whiteSpace=wrap;html=1;arcSize=40;fontColor=#000000;fillColor=#ffffc0;strokeColor=#ff0000;" vertex="1" parent="1">
          <mxGeometry x="350" y="1020" width="120" height="40" as="geometry" />
        </mxCell>
        <mxCell id="yYrWs5ZPauLih-OJuVwP-199" style="edgeStyle=orthogonalEdgeStyle;rounded=0;orthogonalLoop=1;jettySize=auto;html=1;entryX=0.5;entryY=0.305;entryDx=0;entryDy=0;entryPerimeter=0;strokeColor=#ff0000;" edge="1" parent="1" source="yYrWs5ZPauLih-OJuVwP-171" target="yYrWs5ZPauLih-OJuVwP-175">
          <mxGeometry relative="1" as="geometry" />
        </mxCell>
        <mxCell id="yYrWs5ZPauLih-OJuVwP-171" value="Fill Form and Submit" style="rounded=1;whiteSpace=wrap;html=1;arcSize=40;fontColor=#000000;fillColor=#ffffc0;strokeColor=#ff0000;" vertex="1" parent="1">
          <mxGeometry x="350" y="1100" width="120" height="40" as="geometry" />
        </mxCell>
        <mxCell id="yYrWs5ZPauLih-OJuVwP-180" style="edgeStyle=orthogonalEdgeStyle;rounded=0;orthogonalLoop=1;jettySize=auto;html=1;strokeColor=#ff0000;" edge="1" parent="1" source="yYrWs5ZPauLih-OJuVwP-175" target="yYrWs5ZPauLih-OJuVwP-178">
          <mxGeometry relative="1" as="geometry" />
        </mxCell>
        <mxCell id="yYrWs5ZPauLih-OJuVwP-181" style="edgeStyle=orthogonalEdgeStyle;rounded=0;orthogonalLoop=1;jettySize=auto;html=1;strokeColor=#ff0000;exitX=0.501;exitY=0.544;exitDx=0;exitDy=0;exitPerimeter=0;" edge="1" parent="1" source="yYrWs5ZPauLih-OJuVwP-175" target="yYrWs5ZPauLih-OJuVwP-179">
          <mxGeometry relative="1" as="geometry" />
        </mxCell>
        <mxCell id="yYrWs5ZPauLih-OJuVwP-175" value="" style="line;strokeWidth=5;direction=south;html=1;strokeColor=#ff0000;" vertex="1" parent="1">
          <mxGeometry x="575" y="1040" width="10" height="160" as="geometry" />
        </mxCell>
        <mxCell id="yYrWs5ZPauLih-OJuVwP-185" style="edgeStyle=orthogonalEdgeStyle;rounded=0;orthogonalLoop=1;jettySize=auto;html=1;entryX=0.49;entryY=0.2;entryDx=0;entryDy=0;entryPerimeter=0;strokeColor=#ff0000;" edge="1" parent="1" source="yYrWs5ZPauLih-OJuVwP-178" target="yYrWs5ZPauLih-OJuVwP-184">
          <mxGeometry relative="1" as="geometry" />
        </mxCell>
        <mxCell id="yYrWs5ZPauLih-OJuVwP-178" value="Send Details to tour Manager" style="rounded=1;whiteSpace=wrap;html=1;arcSize=40;fontColor=#000000;fillColor=#ffffc0;strokeColor=#ff0000;" vertex="1" parent="1">
          <mxGeometry x="670" y="1060" width="120" height="40" as="geometry" />
        </mxCell>
        <mxCell id="yYrWs5ZPauLih-OJuVwP-186" style="edgeStyle=orthogonalEdgeStyle;rounded=0;orthogonalLoop=1;jettySize=auto;html=1;entryX=0.49;entryY=0.311;entryDx=0;entryDy=0;entryPerimeter=0;strokeColor=#ff0000;" edge="1" parent="1" source="yYrWs5ZPauLih-OJuVwP-179" target="yYrWs5ZPauLih-OJuVwP-184">
          <mxGeometry relative="1" as="geometry" />
        </mxCell>
        <mxCell id="yYrWs5ZPauLih-OJuVwP-179" value="Store details in database" style="rounded=1;whiteSpace=wrap;html=1;arcSize=40;fontColor=#000000;fillColor=#ffffc0;strokeColor=#ff0000;" vertex="1" parent="1">
          <mxGeometry x="670" y="1140" width="120" height="40" as="geometry" />
        </mxCell>
        <mxCell id="yYrWs5ZPauLih-OJuVwP-191" style="edgeStyle=orthogonalEdgeStyle;rounded=0;orthogonalLoop=1;jettySize=auto;html=1;strokeColor=#ff0000;" edge="1" parent="1" source="yYrWs5ZPauLih-OJuVwP-182" target="yYrWs5ZPauLih-OJuVwP-188">
          <mxGeometry relative="1" as="geometry" />
        </mxCell>
        <mxCell id="yYrWs5ZPauLih-OJuVwP-182" value="Review Request&amp;nbsp;" style="rounded=1;whiteSpace=wrap;html=1;arcSize=40;fontColor=#000000;fillColor=#ffffc0;strokeColor=#ff0000;" vertex="1" parent="1">
          <mxGeometry x="1020" y="1199" width="120" height="40" as="geometry" />
        </mxCell>
        <mxCell id="yYrWs5ZPauLih-OJuVwP-187" style="edgeStyle=orthogonalEdgeStyle;rounded=0;orthogonalLoop=1;jettySize=auto;html=1;entryX=0;entryY=0.5;entryDx=0;entryDy=0;strokeColor=#ff0000;" edge="1" parent="1" source="yYrWs5ZPauLih-OJuVwP-184" target="yYrWs5ZPauLih-OJuVwP-182">
          <mxGeometry relative="1" as="geometry" />
        </mxCell>
        <mxCell id="yYrWs5ZPauLih-OJuVwP-184" value="" style="line;strokeWidth=5;direction=south;html=1;strokeColor=#ff0000;" vertex="1" parent="1">
          <mxGeometry x="850" y="1040" width="10" height="160" as="geometry" />
        </mxCell>
        <mxCell id="yYrWs5ZPauLih-OJuVwP-205" style="edgeStyle=orthogonalEdgeStyle;rounded=0;orthogonalLoop=1;jettySize=auto;html=1;strokeColor=#ff0000;entryX=0.497;entryY=0.444;entryDx=0;entryDy=0;entryPerimeter=0;" edge="1" parent="1" source="yYrWs5ZPauLih-OJuVwP-188" target="yYrWs5ZPauLih-OJuVwP-204">
          <mxGeometry relative="1" as="geometry">
            <mxPoint x="950" y="1380" as="targetPoint" />
          </mxGeometry>
        </mxCell>
        <mxCell id="yYrWs5ZPauLih-OJuVwP-220" value="&lt;font style=&quot;font-size: 14px;&quot;&gt;Yes&lt;/font&gt;" style="edgeLabel;html=1;align=center;verticalAlign=middle;resizable=0;points=[];" vertex="1" connectable="0" parent="yYrWs5ZPauLih-OJuVwP-205">
          <mxGeometry x="-0.1096" relative="1" as="geometry">
            <mxPoint as="offset" />
          </mxGeometry>
        </mxCell>
        <mxCell id="yYrWs5ZPauLih-OJuVwP-224" style="edgeStyle=orthogonalEdgeStyle;rounded=0;orthogonalLoop=1;jettySize=auto;html=1;strokeColor=#ff0000;" edge="1" parent="1" source="yYrWs5ZPauLih-OJuVwP-188" target="yYrWs5ZPauLih-OJuVwP-219">
          <mxGeometry relative="1" as="geometry">
            <Array as="points">
              <mxPoint x="1080" y="1685" />
            </Array>
          </mxGeometry>
        </mxCell>
        <mxCell id="yYrWs5ZPauLih-OJuVwP-227" value="&lt;font style=&quot;font-size: 14px;&quot;&gt;NO&lt;/font&gt;" style="edgeLabel;html=1;align=center;verticalAlign=middle;resizable=0;points=[];" vertex="1" connectable="0" parent="yYrWs5ZPauLih-OJuVwP-224">
          <mxGeometry x="-0.7368" y="1" relative="1" as="geometry">
            <mxPoint as="offset" />
          </mxGeometry>
        </mxCell>
        <mxCell id="yYrWs5ZPauLih-OJuVwP-188" value="Approved" style="rhombus;whiteSpace=wrap;html=1;fontColor=#000000;fillColor=#ffffc0;strokeColor=#ff0000;" vertex="1" parent="1">
          <mxGeometry x="1030" y="1300" width="100" height="60" as="geometry" />
        </mxCell>
        <mxCell id="yYrWs5ZPauLih-OJuVwP-196" style="edgeStyle=orthogonalEdgeStyle;rounded=0;orthogonalLoop=1;jettySize=auto;html=1;strokeColor=#ff0000;" edge="1" parent="1" source="yYrWs5ZPauLih-OJuVwP-192" target="yYrWs5ZPauLih-OJuVwP-193">
          <mxGeometry relative="1" as="geometry" />
        </mxCell>
        <mxCell id="yYrWs5ZPauLih-OJuVwP-192" value="View Details" style="rounded=1;whiteSpace=wrap;html=1;arcSize=40;fontColor=#000000;fillColor=#ffffc0;strokeColor=#ff0000;" vertex="1" parent="1">
          <mxGeometry x="40" y="850" width="120" height="40" as="geometry" />
        </mxCell>
        <mxCell id="yYrWs5ZPauLih-OJuVwP-194" style="edgeStyle=orthogonalEdgeStyle;rounded=0;orthogonalLoop=1;jettySize=auto;html=1;entryX=0.831;entryY=0.811;entryDx=0;entryDy=0;entryPerimeter=0;strokeColor=#ff0000;" edge="1" parent="1" source="yYrWs5ZPauLih-OJuVwP-193" target="yYrWs5ZPauLih-OJuVwP-175">
          <mxGeometry relative="1" as="geometry">
            <Array as="points">
              <mxPoint x="100" y="1240" />
              <mxPoint x="530" y="1240" />
              <mxPoint x="530" y="1173" />
            </Array>
          </mxGeometry>
        </mxCell>
        <mxCell id="yYrWs5ZPauLih-OJuVwP-193" value="Fill Booking form and submit" style="rounded=1;whiteSpace=wrap;html=1;arcSize=40;fontColor=#000000;fillColor=#ffffc0;strokeColor=#ff0000;" vertex="1" parent="1">
          <mxGeometry x="30" y="1070" width="140" height="60" as="geometry" />
        </mxCell>
        <mxCell id="yYrWs5ZPauLih-OJuVwP-212" style="edgeStyle=orthogonalEdgeStyle;rounded=0;orthogonalLoop=1;jettySize=auto;html=1;entryX=0.42;entryY=0.567;entryDx=0;entryDy=0;entryPerimeter=0;strokeColor=#ff0000;" edge="1" parent="1" source="yYrWs5ZPauLih-OJuVwP-200" target="yYrWs5ZPauLih-OJuVwP-211">
          <mxGeometry relative="1" as="geometry" />
        </mxCell>
        <mxCell id="yYrWs5ZPauLih-OJuVwP-200" value="Change the status to Approve in database" style="rounded=1;whiteSpace=wrap;html=1;arcSize=40;fontColor=#000000;fillColor=#ffffc0;strokeColor=#ff0000;" vertex="1" parent="1">
          <mxGeometry x="670" y="1280" width="120" height="40" as="geometry" />
        </mxCell>
        <mxCell id="yYrWs5ZPauLih-OJuVwP-213" style="edgeStyle=orthogonalEdgeStyle;rounded=0;orthogonalLoop=1;jettySize=auto;html=1;entryX=0.42;entryY=0.4;entryDx=0;entryDy=0;entryPerimeter=0;strokeColor=#ff0000;" edge="1" parent="1" source="yYrWs5ZPauLih-OJuVwP-201" target="yYrWs5ZPauLih-OJuVwP-211">
          <mxGeometry relative="1" as="geometry" />
        </mxCell>
        <mxCell id="yYrWs5ZPauLih-OJuVwP-201" value="Send Email to Tourist" style="rounded=1;whiteSpace=wrap;html=1;arcSize=40;fontColor=#000000;fillColor=#ffffc0;strokeColor=#ff0000;" vertex="1" parent="1">
          <mxGeometry x="670" y="1370" width="120" height="40" as="geometry" />
        </mxCell>
        <mxCell id="yYrWs5ZPauLih-OJuVwP-214" style="edgeStyle=orthogonalEdgeStyle;rounded=0;orthogonalLoop=1;jettySize=auto;html=1;entryX=0.421;entryY=0.339;entryDx=0;entryDy=0;entryPerimeter=0;strokeColor=#ff0000;" edge="1" parent="1" source="yYrWs5ZPauLih-OJuVwP-202" target="yYrWs5ZPauLih-OJuVwP-211">
          <mxGeometry relative="1" as="geometry" />
        </mxCell>
        <mxCell id="yYrWs5ZPauLih-OJuVwP-202" value="Update Tourist Bookings in their Profile" style="rounded=1;whiteSpace=wrap;html=1;arcSize=40;fontColor=#000000;fillColor=#ffffc0;strokeColor=#ff0000;" vertex="1" parent="1">
          <mxGeometry x="670" y="1450" width="120" height="60" as="geometry" />
        </mxCell>
        <mxCell id="yYrWs5ZPauLih-OJuVwP-206" style="edgeStyle=orthogonalEdgeStyle;rounded=0;orthogonalLoop=1;jettySize=auto;html=1;entryX=1;entryY=0.5;entryDx=0;entryDy=0;strokeColor=#ff0000;" edge="1" parent="1" source="yYrWs5ZPauLih-OJuVwP-204" target="yYrWs5ZPauLih-OJuVwP-200">
          <mxGeometry relative="1" as="geometry" />
        </mxCell>
        <mxCell id="yYrWs5ZPauLih-OJuVwP-207" style="edgeStyle=orthogonalEdgeStyle;rounded=0;orthogonalLoop=1;jettySize=auto;html=1;entryX=1;entryY=0.5;entryDx=0;entryDy=0;strokeColor=#ff0000;" edge="1" parent="1" source="yYrWs5ZPauLih-OJuVwP-204" target="yYrWs5ZPauLih-OJuVwP-201">
          <mxGeometry relative="1" as="geometry">
            <Array as="points">
              <mxPoint x="935" y="1390" />
              <mxPoint x="935" y="1390" />
            </Array>
          </mxGeometry>
        </mxCell>
        <mxCell id="yYrWs5ZPauLih-OJuVwP-208" style="edgeStyle=orthogonalEdgeStyle;rounded=0;orthogonalLoop=1;jettySize=auto;html=1;strokeColor=#ff0000;exitX=0.497;exitY=0.622;exitDx=0;exitDy=0;exitPerimeter=0;" edge="1" parent="1" source="yYrWs5ZPauLih-OJuVwP-204" target="yYrWs5ZPauLih-OJuVwP-202">
          <mxGeometry relative="1" as="geometry" />
        </mxCell>
        <mxCell id="yYrWs5ZPauLih-OJuVwP-204" value="" style="line;strokeWidth=5;direction=south;html=1;strokeColor=#ff0000;" vertex="1" parent="1">
          <mxGeometry x="930" y="1310" width="10" height="160" as="geometry" />
        </mxCell>
        <mxCell id="yYrWs5ZPauLih-OJuVwP-226" style="edgeStyle=orthogonalEdgeStyle;rounded=0;orthogonalLoop=1;jettySize=auto;html=1;entryX=0.5;entryY=0;entryDx=0;entryDy=0;strokeColor=#ff0000;" edge="1" parent="1" source="yYrWs5ZPauLih-OJuVwP-211" target="yYrWs5ZPauLih-OJuVwP-219">
          <mxGeometry relative="1" as="geometry" />
        </mxCell>
        <mxCell id="yYrWs5ZPauLih-OJuVwP-229" value="" style="rounded=0;whiteSpace=wrap;html=1;" vertex="1" parent="1">
          <mxGeometry x="1800" y="104" width="1510" height="2230" as="geometry" />
        </mxCell>
        <mxCell id="yYrWs5ZPauLih-OJuVwP-211" value="" style="line;strokeWidth=5;direction=south;html=1;strokeColor=#ff0000;" vertex="1" parent="1">
          <mxGeometry x="530" y="1320" width="10" height="160" as="geometry" />
        </mxCell>
        <mxCell id="yYrWs5ZPauLih-OJuVwP-219" value="" style="ellipse;html=1;shape=endState;fillColor=#000000;strokeColor=#ff0000;" vertex="1" parent="1">
          <mxGeometry x="345" y="1670" width="30" height="30" as="geometry" />
        </mxCell>
      </root>
    </mxGraphModel>
  </diagram>
</mxfile>
